<?xml version="1.0" encoding="UTF-8" standalone="no"?>
<!-- Created with Inkscape (http://www.inkscape.org/) -->
<svg xmlns:dc="http://purl.org/dc/elements/1.1/" xmlns:cc="http://web.resource.org/cc/" xmlns:rdf="http://www.w3.org/1999/02/22-rdf-syntax-ns#" xmlns:svg="http://www.w3.org/2000/svg" xmlns="http://www.w3.org/2000/svg" xmlns:sodipodi="http://sodipodi.sourceforge.net/DTD/sodipodi-0.dtd" xmlns:inkscape="http://www.inkscape.org/namespaces/inkscape" id="svg2268" sodipodi:version="0.32" inkscape:version="0.44.1" width="302" height="674" version="1.0" sodipodi:docbase="E:\CoA" sodipodi:docname="Woman_Silhouette.svg">
  <metadata id="metadata2273">
    <rdf:RDF>
      <cc:Work rdf:about="">
        <dc:format>image/svg+xml</dc:format>
        <dc:type rdf:resource="http://purl.org/dc/dcmitype/StillImage"/>
      </cc:Work>
    </rdf:RDF>
  </metadata>
  <defs id="defs2271"/>
  <sodipodi:namedview inkscape:window-height="721" inkscape:window-width="1024" inkscape:pageshadow="2" inkscape:pageopacity="0.0" guidetolerance="10.0" gridtolerance="10.0" objecttolerance="10.0" borderopacity="1.0" bordercolor="#666666" pagecolor="#ffffff" id="base" inkscape:zoom="0.5652819" inkscape:cx="151" inkscape:cy="337" inkscape:window-x="-4" inkscape:window-y="-4" inkscape:current-layer="svg2268"/>
  <path style="fill:black" d="M 0,673.33786 C 0,672.97368 1.1235526,670.75852 2.4967836,668.41528 C 4.2951748,665.34655 6.3767532,663.50382 9.9385173,661.82742 C 14.668828,659.60102 14.932156,659.26127 16.00517,654 C 18.089078,643.78206 20.098576,637.53317 24.044593,629 C 27.974807,620.501 27.976402,620.49233 37.565202,555.5 C 42.839664,519.75 47.527673,484.65 47.982999,477.5 C 48.665704,466.77946 49.371403,462.92191 52.00767,455.5 C 54.022302,449.82818 55.892293,441.55531 57.064459,433.12867 C 62.388359,394.85542 71.348516,362.34313 86.01511,328.08007 C 88.932129,321.26553 89.152012,320.00088 88.710062,312.58007 C 88.445395,308.13603 87.051447,298.50349 85.6124,291.17442 C 84.173353,283.84535 82.100478,269.22035 81.006011,258.67442 C 78.230541,231.93089 75.187954,220.13751 65.813868,199.78815 C 57.377116,181.47356 57.449058,171.10845 66.139859,152.82067 L 70.297583,144.0717 L 69.738913,132.28585 C 69.312384,123.28769 68.665916,119.31736 67.005759,115.5 C 63.749237,108.01196 58.290485,87.314476 56.378297,75.204752 C 54.116979,60.884017 54.119942,32.74165 56.384526,16.046453 C 57.313605,9.1970021 58.273108,3.3935591 58.516754,3.1499131 C 60.807119,0.85954736 108.32841,0.38663998 126.00613,2.4782937 C 140.16331,4.1533927 161.54199,9.3099176 173.68404,13.978178 C 181.59919,17.021318 182.28917,17.559887 194.68404,30.369891 C 201.73282,37.654745 209.7279,46.739188 212.45088,50.55754 L 217.40176,57.5 L 238.95088,68.161572 C 265.79151,81.441152 300.0014,101.95531 301.40476,105.6124 C 303.26102,110.44973 296.66882,119.67234 286.79187,126.05612 C 274.34289,134.10229 247.98393,143.99784 215.02505,152.99847 C 194.52398,158.59703 194.17302,158.80343 185.26538,170.5 C 176.86502,181.53047 169.77306,199.98662 167.53268,216.64764 L 166.84048,221.79528 L 174.67738,231.14764 C 195.9867,256.57766 209.63937,282.22318 216.38908,309.5 C 217.506,314.01367 218.40053,332.96442 220.00012,386 L 222.12645,456.5 L 225.95902,468.5 C 231.73376,486.58109 232.50142,491.98906 232.48868,514.5 C 232.47832,532.8058 232.20852,535.89772 229.30368,551 C 225.55729,570.47748 223.25769,589.65588 222.11624,610.94246 L 221.28816,626.38493 L 224.14408,630.88824 C 227.82079,636.68581 227.78492,640.03644 224,644.34722 C 221.0057,647.75754 221,647.78799 221,660.38202 L 221,673 L 198.5,673 C 186.125,673 176,672.61752 176,672.15004 C 176,670.55492 181.81527,663.26773 184.76347,661.16842 C 187.3935,659.29568 187.93063,657.9324 189.83872,648.28701 C 192.9248,632.68685 195.75027,612.47795 196.98775,597.15416 C 198.69263,576.04247 196.15849,526.97351 191.51957,491.27317 C 190.09545,480.31338 189.95401,479.91529 185.57316,474.53678 C 180.00731,467.70341 178.20293,461.88979 177.02658,447 C 175.9257,433.06553 172.40202,413.73502 167.1696,392.92564 C 162.24528,373.34159 154.97781,350.60164 153.98745,351.6786 C 153.572,352.13037 142.12951,373.64959 128.55969,399.49909 C 111.80228,431.42072 101.01815,453.3135 94.94365,467.74274 C 86.115304,488.71341 86,489.09408 86,497.26988 C 86,515.10271 82.530234,532.77833 75.579992,550.3513 C 67.956466,569.62659 61.256831,597.10337 59.44039,616.5436 C 58.816331,623.22251 58.94033,623.83645 61.835359,628.40144 C 63.514565,631.04927 65.164074,634.47054 65.500934,636.00425 C 66.337964,639.81523 63.889239,645.23062 60.113139,647.91944 L 57,650.13619 L 57,661.56809 L 57,673 L 53.5,673 L 50,673 L 50,663.41667 C 50,656.19702 49.691693,653.93491 48.75,654.24518 C 46.365595,655.03077 41.081842,663.06458 39.362706,668.51831 L 37.634756,674 L 18.817378,674 C 8.46782,674 0,673.70204 0,673.33786 z M 223,115.40684 C 236.48398,113.8519 251.73066,111.22505 253.75389,110.10827 C 255.46954,109.16126 242.11377,97.56107 229.97195,89.452381 C 224.73152,85.95266 215.50652,80.793959 209.47195,77.988601 C 203.43738,75.183244 196.48299,71.900662 194.01775,70.693975 C 191.55252,69.487289 185.81502,64.819643 181.26775,60.321429 C 176.08553,55.195106 173,52.771588 173,53.827556 C 173,62.993263 178.14559,93.710327 181.47318,104.40893 C 182.31293,107.10884 183,111.33207 183,113.79388 L 183,118.26989 L 196.75,117.5591 C 204.3125,117.16816 216.125,116.19965 223,115.40684 z M 110,107.44795 C 110,105.57812 102.98034,91.273054 98.984534,85 C 95.459474,79.465977 94.052733,73.637984 94.036315,64.5 C 94.015833,53.100654 97.724986,42.364944 105.42639,31.532754 C 107.35525,28.819776 108.83167,26.498338 108.70734,26.374002 C 108.583,26.249666 105.97689,26.99341 102.91598,28.026767 C 99.855066,29.060124 94.247244,30.401375 90.45415,31.007325 C 86.661056,31.613274 83.491469,32.197015 83.410624,32.304526 C 83.329779,32.412037 84.322598,37.675 85.616888,44 C 86.911178,50.325 88.565457,60.967609 89.293064,67.650243 L 90.615987,79.800485 L 99.355255,94.400243 C 107.58105,108.1422 110,111.1072 110,107.44795 z " id="path2277"/>
</svg>